PathFileType	4	(X/Y/Z)	s04c0201.trc
DataRate	CameraRate	NumFrames	NumMarkers	Units	OrigDataRate	OrigDataStartFrame	OrigNumFrames
200	200	4	51	mm	200	250	2000
Frame#	Time	racr			lacr			c7			jug			rlel			rdr			llel			ldr			s2			lic			ric			lasi			rasi			rpsi			lpsi			rgt			lgt			rth1			rth2			rth3			rth4			rlfc			rmfc			rsh1			rsh2			rsh3			rsh4			rlmal			rmmal			rcal			rtoe			rmt5			lth1			lth2			lth4			lth3			llfc			lmfc			lsh1			lsh2			lsh3			lsh4			llmal			lmmal			lcal			ltoe			lmt1			lmt5			SBIKE			LBIKE			RBIKE			
		X1	Y1	Z1	X2	Y2	Z2	X3	Y3	Z3	X4	Y4	Z4	X5	Y5	Z5	X6	Y6	Z6	X7	Y7	Z7	X8	Y8	Z8	X9	Y9	Z9	X10	Y10	Z10	X11	Y11	Z11	X12	Y12	Z12	X13	Y13	Z13	X14	Y14	Z14	X15	Y15	Z15	X16	Y16	Z16	X17	Y17	Z17	X18	Y18	Z18	X19	Y19	Z19	X20	Y20	Z20	X21	Y21	Z21	X22	Y22	Z22	X23	Y23	Z23	X24	Y24	Z24	X25	Y25	Z25	X26	Y26	Z26	X27	Y27	Z27	X28	Y28	Z28	X29	Y29	Z29	X30	Y30	Z30	X31	Y31	Z31	X32	Y32	Z32	X33	Y33	Z33	X34	Y34	Z34	X35	Y35	Z35	X36	Y36	Z36	X37	Y37	Z37	X38	Y38	Z38	X39	Y39	Z39	X40	Y40	Z40	X41	Y41	Z41	X42	Y42	Z42	X43	Y43	Z43	X44	Y44	Z44	X45	Y45	Z45	X46	Y46	Z46	X47	Y47	Z47	X48	Y48	Z48	X49	Y49	Z49	X50	Y50	Z50	X51	Y51	Z51	
250	1.2500	463.098559	1473.918157	-135.059885	465.140697	1470.722185	-432.473055	434.071496	1526.672504	-290.595106	461.874523	1378.452366	-287.062423	517.865253	1173.202013	-26.114263	689.789991	940.436258	-96.428985	505.286967	1191.167248	-540.073677	634.715946	839.871590	-503.472854	-74.248309	1180.802655	-291.528149	90.682927	1190.564687	-441.056103	85.807479	1177.586813	-128.963126	121.479465	1141.228182	-397.027857	129.250026	1124.844017	-173.349029	-43.533520	1221.919527	-245.277696	-47.130967	1226.539571	-322.428810	31.577058	1118.039400	-114.313501	39.624984	1119.771712	-485.377809	115.125447	972.569297	-89.089723	175.936014	908.249983	-95.109569	199.066594	825.953909	-98.094305	204.308776	925.756736	-111.953852	253.981327	690.650841	-121.381756	234.090488	672.706541	-233.505773	191.885313	574.676413	-97.374536	178.161284	489.468353	-113.783729	119.773041	426.021526	-121.734363	207.274728	480.288883	-138.031412	65.055208	286.131061	-134.054531	89.546249	290.611787	-217.734388	-7.781503	275.702693	-174.549879	271.846016	167.390820	-160.136997	200.270617	166.154191	-105.717571	102.120760	1069.398666	-497.846585	187.427138	1062.691086	-508.598224	201.220401	1094.510407	-495.121559	259.856062	1012.483946	-523.213606	402.184990	932.818912	-512.688304	446.291512	920.011490	-406.105373	364.940857	822.666112	-523.456040	343.388059	743.330027	-492.758062	281.566856	680.542142	-479.940745	369.417639	736.671645	-464.362728	203.131030	561.850352	-452.940237	205.695189	572.097232	-365.122148	121.740443	549.667807	-403.318691	418.200783	500.494745	-421.487079	349.055080	487.236219	-367.389312	341.375898	470.908863	-478.997261	-187.378468	935.514451	-285.895189	-18.211373	79.347794	-484.542259	-18.309395	79.373405	-83.789592	
251	1.2550	463.073046	1473.889389	-135.038318	465.129432	1470.712122	-432.412290	434.052348	1526.665239	-290.562819	461.839657	1378.437077	-287.018411	517.834756	1173.173455	-26.104476	689.806756	940.425532	-96.404594	505.292970	1191.167360	-540.037458	634.770769	839.835211	-503.533209	-74.271226	1180.789631	-291.543857	90.668629	1190.564960	-441.026164	85.760372	1177.593830	-128.977185	121.457634	1141.215016	-397.045060	129.194826	1124.862449	-173.358347	-43.548439	1221.910457	-245.308269	-47.165750	1226.544655	-322.450609	31.534951	1118.060501	-114.305588	39.586518	1119.767469	-485.375561	115.070357	972.577142	-89.101164	175.898114	908.287334	-95.123634	199.053222	825.987622	-98.087970	204.277225	925.796753	-111.960145	253.979713	690.679895	-121.363154	234.089958	672.768223	-233.484496	191.911427	574.691571	-97.354439	178.199160	489.488169	-113.764448	119.822867	426.039758	-121.714861	207.291886	480.330078	-138.022488	65.116301	286.137452	-134.051255	89.594333	290.636874	-217.724964	-7.723874	275.757613	-174.555385	271.878694	167.347802	-160.123430	200.308241	166.131435	-105.722545	102.080634	1069.407885	-497.878786	187.375085	1062.689914	-508.650060	201.178612	1094.504892	-495.169455	259.806146	1012.484422	-523.260763	402.123448	932.827296	-512.769912	446.248594	920.066546	-406.123715	364.915195	822.649635	-523.516078	343.371466	743.343648	-492.794336	281.539547	680.555634	-479.972887	369.395219	736.667779	-464.405959	203.101417	561.892572	-452.978462	205.665418	572.132941	-365.131185	121.700919	549.681839	-403.323798	418.164690	500.501193	-421.486415	349.007572	487.238873	-367.391685	341.348947	470.908892	-478.995009	-187.377750	935.524630	-285.886947	-18.210045	79.340349	-484.545650	-18.293030	79.367061	-83.784154	
252	1.2600	463.053147	1473.877496	-134.986727	465.170005	1470.707474	-432.403796	434.047457	1526.657744	-290.529479	461.828132	1378.425422	-287.013569	517.783636	1173.136995	-26.110804	689.811687	940.420911	-96.421768	505.279407	1191.163986	-540.006331	634.772234	839.822890	-503.537242	-74.308181	1180.798660	-291.571964	90.642886	1190.558545	-441.012748	85.710366	1177.603420	-128.981271	121.457567	1141.215380	-397.045246	129.161255	1124.894826	-173.346939	-43.600189	1221.940767	-245.324012	-47.185327	1226.544358	-322.491680	31.467621	1118.074426	-114.314156	39.559530	1119.763661	-485.358845	115.017319	972.600448	-89.087976	175.868484	908.326574	-95.110126	199.033886	826.037560	-98.068645	204.252016	925.833595	-111.957231	253.995651	690.732910	-121.341808	234.113333	672.811001	-233.466552	191.926289	574.724864	-97.338305	178.241768	489.522937	-113.740648	119.873429	426.069712	-121.713679	207.331252	480.364986	-137.997312	65.169227	286.144103	-134.049056	89.683664	290.650233	-217.718649	-7.646755	275.772532	-174.553391	271.927397	167.306185	-160.130868	200.352359	166.106713	-105.720493	102.037440	1069.421508	-497.910222	187.326813	1062.688376	-508.692659	201.142024	1094.518759	-495.228751	259.739905	1012.488613	-523.331767	402.085159	932.824572	-512.842252	446.239930	920.086696	-406.206412	364.886937	822.628731	-523.596990	343.339093	743.332592	-492.845915	281.516811	680.553752	-480.009205	369.356765	736.682796	-464.438194	203.091605	561.906192	-452.991637	205.643852	572.155314	-365.147094	121.682188	549.709635	-403.335739	418.135238	500.524747	-421.505316	348.991958	487.265737	-367.416559	341.318356	470.931977	-479.019426	-187.379520	935.516684	-285.883157	-18.225152	79.348726	-484.541594	-18.312187	79.367204	-83.791795	
253	1.2650	463.016289	1473.831581	-134.950947	465.170102	1470.689413	-432.403377	434.010835	1526.654483	-290.517558	461.786970	1378.431246	-287.025512	517.713592	1173.065846	-26.118696	689.814368	940.403688	-96.413360	505.288082	1191.149063	-539.980862	634.732714	839.858995	-503.442094	-74.362598	1180.794256	-291.581889	90.643976	1190.550842	-441.013747	85.672216	1177.595609	-128.999626	121.434194	1141.208155	-397.056254	129.107567	1124.917619	-173.349503	-43.654059	1221.932197	-245.362951	-47.220751	1226.545897	-322.513780	31.422743	1118.090145	-114.325549	39.544101	1119.771520	-485.364605	114.972348	972.601236	-89.088383	175.827446	908.376682	-95.096429	199.026940	826.056832	-98.055888	204.208821	925.884802	-111.962011	254.009122	690.766985	-121.312721	234.145296	672.862313	-233.449430	191.926038	574.778301	-97.326690	178.267958	489.534073	-113.740896	119.911688	426.086732	-121.693510	207.373197	480.397346	-137.982576	65.221526	286.161053	-134.052776	89.753068	290.637445	-217.730293	-7.567853	275.825785	-174.564962	271.961277	167.256056	-160.134600	200.382670	166.096439	-105.717342	101.973020	1069.411315	-497.924144	187.281877	1062.682153	-508.747965	201.092632	1094.508523	-495.282897	259.691891	1012.474312	-523.379457	402.036323	932.825005	-512.929805	446.194935	920.095083	-406.278550	364.864177	822.619453	-523.666460	343.318729	743.336218	-492.876359	281.521224	680.542724	-480.026256	369.335991	736.680647	-464.466932	203.067702	561.902869	-452.998376	205.630677	572.154896	-365.164932	121.667938	549.714364	-403.338164	418.118306	500.527834	-421.504984	348.972822	487.268855	-367.397630	341.303908	470.913785	-479.005880	-187.380709	935.512989	-285.885669	-18.208228	79.343887	-484.544650	-18.318201	79.370368	-83.795470	
